HIERARCHY
ROOT Hips
{
	OFFSET 0.000000 103.266502 0.000000
	CHANNELS 6 Xposition Yposition Zposition Xrotation Yrotation Zrotation 
	JOINT Spine
	{
		OFFSET -0.002400 12.777504 0.315300
		CHANNELS 3 Xrotation Yrotation Zrotation
		JOINT Spine1
		{
			OFFSET -0.002067 5.816869 0.032633
			CHANNELS 3 Xrotation Yrotation Zrotation
			JOINT Spine1_split
			{
				OFFSET -0.002067 5.816869 0.032633
				CHANNELS 3 Xrotation Yrotation Zrotation
				JOINT Spine2
				{
					OFFSET -0.002067 5.816869 0.032633
					CHANNELS 3 Xrotation Yrotation Zrotation
					JOINT Neck
					{
						OFFSET -0.003700 21.199493 -0.826900
						CHANNELS 3 Xrotation Yrotation Zrotation
						JOINT Head
						{
							OFFSET 0.000000 20.442200 4.834800
							CHANNELS 3 Xrotation Yrotation Zrotation
							JOINT HeadTop_End
							{
								OFFSET 0.000000 34.668396 4.968400
								CHANNELS 3 Xrotation Yrotation Zrotation
								End Site
								{
									OFFSET 0.000000 0.000000 0.000000
								}
							}
						}
					}
					JOINT LeftShoulder
					{
						OFFSET 3.288150 8.794197 -1.372250
						CHANNELS 3 Xrotation Yrotation Zrotation
						JOINT LeftShoulder_split
						{
							OFFSET 3.288150 8.794197 -1.372250
							CHANNELS 3 Xrotation Yrotation Zrotation
							JOINT LeftArm
							{
								OFFSET 11.953299 -2.279007 -0.146200
								CHANNELS 3 Xrotation Yrotation Zrotation
								JOINT LeftForeArm
								{
									OFFSET 18.448900 0.000000 0.000000
									CHANNELS 3 Xrotation Yrotation Zrotation
									JOINT LeftHand
									{
										OFFSET 29.527798 0.000000 0.000000
										CHANNELS 3 Xrotation Yrotation Zrotation
										JOINT LeftHandThumb1
										{
											OFFSET 10.739754 -2.369614 9.225399
											CHANNELS 3 Xrotation Yrotation Zrotation
											JOINT LeftHandThumb2
											{
												OFFSET 4.926170 -2.844131 2.844125
												CHANNELS 3 Xrotation Yrotation Zrotation
												JOINT LeftHandThumb3
												{
													OFFSET 4.614891 -2.664413 2.664409
													CHANNELS 3 Xrotation Yrotation Zrotation
													JOINT LeftHandThumb4
													{
														OFFSET 4.432465 -2.559082 2.559083
														CHANNELS 3 Xrotation Yrotation Zrotation
														End Site
														{
															OFFSET 0.000000 0.000000 0.000000
														}
													}
												}
											}
										}
										JOINT LeftHandIndex1
										{
											OFFSET 26.467674 0.187653 6.405298
											CHANNELS 3 Xrotation Yrotation Zrotation
											JOINT LeftHandIndex2
											{
												OFFSET 8.792900 0.000000 0.000000
												CHANNELS 3 Xrotation Yrotation Zrotation
												JOINT LeftHandIndex3
												{
													OFFSET 10.075203 0.000000 0.000000
													CHANNELS 3 Xrotation Yrotation Zrotation
													End Site
													{
														OFFSET 0.000000 0.000000 0.000000
													}
												}
											}
										}
										JOINT LeftHandMiddle1
										{
											OFFSET 25.764404 0.000000 0.000000
											CHANNELS 3 Xrotation Yrotation Zrotation
											JOINT LeftHandMiddle2
											{
												OFFSET 9.393974 0.000000 0.000000
												CHANNELS 3 Xrotation Yrotation Zrotation
												JOINT LeftHandMiddle3
												{
													OFFSET 10.771950 0.000000 0.000000
													CHANNELS 3 Xrotation Yrotation Zrotation
													End Site
													{
														OFFSET 0.000000 0.000000 0.000000
													}
												}
											}
										}
										JOINT LeftHandRing1
										{
											OFFSET 24.660927 0.144547 -6.225808
											CHANNELS 3 Xrotation Yrotation Zrotation
											JOINT LeftHandRing2
											{
												OFFSET 9.393799 0.000000 0.000000
												CHANNELS 3 Xrotation Yrotation Zrotation
												JOINT LeftHandRing3
												{
													OFFSET 9.928497 0.000000 0.000000
													CHANNELS 3 Xrotation Yrotation Zrotation
													End Site
													{
														OFFSET 0.000000 0.000000 0.000000
													}
												}
											}
										}
										JOINT LeftHandPinky1
										{
											OFFSET 23.655350 0.125290 -12.815412
											CHANNELS 3 Xrotation Yrotation Zrotation
											JOINT LeftHandPinky2
											{
												OFFSET 8.425102 0.000000 0.000000
												CHANNELS 3 Xrotation Yrotation Zrotation
												JOINT LeftHandPinky3
												{
													OFFSET 8.147003 0.000000 0.000000
													CHANNELS 3 Xrotation Yrotation Zrotation
													End Site
													{
														OFFSET 0.000000 0.000000 0.000000
													}
												}
											}
										}
									}
								}
							}
						}
					}
					JOINT RightShoulder
					{
						OFFSET -3.249400 8.794197 -1.372250
						CHANNELS 3 Xrotation Yrotation Zrotation
						JOINT RightShoulder_split
						{
							OFFSET -3.249400 8.794197 -1.372250
							CHANNELS 3 Xrotation Yrotation Zrotation
							JOINT RightArm
							{
								OFFSET -11.953299 -2.279007 -0.146200
								CHANNELS 3 Xrotation Yrotation Zrotation
								JOINT RightForeArm
								{
									OFFSET -18.448900 0.000000 0.000000
									CHANNELS 3 Xrotation Yrotation Zrotation
									JOINT RightHand
									{
										OFFSET -29.527802 0.000000 0.000000
										CHANNELS 3 Xrotation Yrotation Zrotation
										JOINT RightHandThumb1
										{
											OFFSET -10.739754 -2.369614 9.225399
											CHANNELS 3 Xrotation Yrotation Zrotation
											JOINT RightHandThumb2
											{
												OFFSET -4.926170 -2.844131 2.844125
												CHANNELS 3 Xrotation Yrotation Zrotation
												JOINT RightHandThumb3
												{
													OFFSET -4.614891 -2.664413 2.664409
													CHANNELS 3 Xrotation Yrotation Zrotation
													JOINT RightHandThumb4
													{
														OFFSET -4.432465 -2.559082 2.559083
														CHANNELS 3 Xrotation Yrotation Zrotation
														End Site
														{
															OFFSET 0.000000 0.000000 0.000000
														}
													}
												}
											}
										}
										JOINT RightHandIndex1
										{
											OFFSET -26.467674 0.187653 6.405298
											CHANNELS 3 Xrotation Yrotation Zrotation
											JOINT RightHandIndex2
											{
												OFFSET -8.792900 0.000000 0.000000
												CHANNELS 3 Xrotation Yrotation Zrotation
												JOINT RightHandIndex3
												{
													OFFSET -10.075203 0.000000 0.000000
													CHANNELS 3 Xrotation Yrotation Zrotation
													End Site
													{
														OFFSET 0.000000 0.000000 0.000000
													}
												}
											}
										}
										JOINT RightHandMiddle1
										{
											OFFSET -25.764404 0.000000 0.000000
											CHANNELS 3 Xrotation Yrotation Zrotation
											JOINT RightHandMiddle2
											{
												OFFSET -9.393974 0.000000 0.000000
												CHANNELS 3 Xrotation Yrotation Zrotation
												JOINT RightHandMiddle3
												{
													OFFSET -10.771950 0.000000 0.000000
													CHANNELS 3 Xrotation Yrotation Zrotation
													End Site
													{
														OFFSET 0.000000 0.000000 0.000000
													}
												}
											}
										}
										JOINT RightHandRing1
										{
											OFFSET -24.660927 0.144547 -6.225808
											CHANNELS 3 Xrotation Yrotation Zrotation
											JOINT RightHandRing2
											{
												OFFSET -9.393799 0.000000 0.000000
												CHANNELS 3 Xrotation Yrotation Zrotation
												JOINT RightHandRing3
												{
													OFFSET -9.928497 0.000000 0.000000
													CHANNELS 3 Xrotation Yrotation Zrotation
													End Site
													{
														OFFSET 0.000000 0.000000 0.000000
													}
												}
											}
										}
										JOINT RightHandPinky1
										{
											OFFSET -23.655350 0.125290 -12.815412
											CHANNELS 3 Xrotation Yrotation Zrotation
											JOINT RightHandPinky2
											{
												OFFSET -8.425102 0.000000 0.000000
												CHANNELS 3 Xrotation Yrotation Zrotation
												JOINT RightHandPinky3
												{
													OFFSET -8.147003 0.000000 0.000000
													CHANNELS 3 Xrotation Yrotation Zrotation
													End Site
													{
														OFFSET 0.000000 0.000000 0.000000
													}
												}
											}
										}
									}
								}
							}
						}
					}
				}
			}
		}
	}
	JOINT LeftUpLeg
	{
		OFFSET 11.394100 -6.187798 -0.413800
		CHANNELS 3 Xrotation Yrotation Zrotation
		JOINT LeftLeg
		{
			OFFSET 0.430247 -32.302673 3.732800
			CHANNELS 3 Xrotation Yrotation Zrotation
			JOINT LeftFoot
			{
				OFFSET -0.430247 -48.264931 -6.423300
				CHANNELS 3 Xrotation Yrotation Zrotation
				JOINT LeftToeBase
				{
					OFFSET 4.230900 -16.068199 23.438400
					CHANNELS 3 Xrotation Yrotation Zrotation
					JOINT LeftToe_End
					{
						OFFSET 4.510700 0.695400 19.974600
						CHANNELS 3 Xrotation Yrotation Zrotation
						End Site
						{
							OFFSET 0.000000 0.000000 0.000000
						}
					}
				}
			}
		}
	}
	JOINT RightUpLeg
	{
		OFFSET -11.333700 -6.187798 -0.413800
		CHANNELS 3 Xrotation Yrotation Zrotation
		JOINT RightLeg
		{
			OFFSET -0.430392 -32.302628 3.733000
			CHANNELS 3 Xrotation Yrotation Zrotation
			JOINT RightFoot
			{
				OFFSET 0.430392 -48.264973 -6.423500
				CHANNELS 3 Xrotation Yrotation Zrotation
				JOINT RightToeBase
				{
					OFFSET -4.230900 -16.068199 23.438400
					CHANNELS 3 Xrotation Yrotation Zrotation
					JOINT RightToe_End
					{
						OFFSET -4.510700 0.695400 19.974600
						CHANNELS 3 Xrotation Yrotation Zrotation
						End Site
						{
							OFFSET 0.000000 0.000000 0.000000
						}
					}
				}
			}
		}
	}
}
MOTION
Frames: 4
Frame Time: 0.016667
13.104624 96.453537 -1.011073 4.157461 -46.523823 3.347165 10.005772 -5.752361 2.207245 3.056898 -1.359246 -0.696759 0.000000 0.000000 0.000000 -8.919073 -4.431365 -1.692197 -8.566929 -5.142935 -4.413996 10.444449 -20.693629 6.191010 0.000000 -0.000000 -0.000000 -0.955894 -3.915931 -2.538328 0.000000 0.000000 0.000000 13.282559 6.823603 -62.263615 -0.021057 -42.236893 -0.010391 -13.882434 -0.489242 0.693281 10.625195 -8.591976 14.272391 -0.294849 14.668203 -7.135001 3.583857 12.313824 3.409804 -0.000002 -0.000000 0.000002 1.031655 -1.592167 -15.118841 -0.015778 -1.091864 -24.286206 -0.000002 -0.000002 -0.000001 1.615783 -0.182619 -33.849280 -0.338678 -1.382259 -28.184987 0.000001 -0.000002 0.000001 -0.356899 -2.845865 -41.642946 -0.398116 -1.519207 -29.911878 -0.000002 0.000002 -0.000001 0.340446 -1.216952 -35.934086 -0.410246 -1.748687 -33.792511 -0.000001 -0.000002 -0.000000 -0.771033 0.311184 0.884125 0.000000 0.000000 0.000000 3.113839 10.823066 70.823843 0.587864 47.471013 -0.255458 14.368643 15.131241 2.773463 8.265278 7.734433 -18.880813 5.407330 -20.572677 9.835197 1.742517 -3.611575 0.678906 0.000002 0.000001 -0.000003 0.428040 3.999541 18.226186 -0.076242 1.217073 27.275414 0.000000 -0.000001 0.000000 -5.761811 0.366115 35.692793 -0.334674 1.374759 28.018551 -0.000001 -0.000002 0.000000 -11.821795 -3.411396 42.352483 -0.510557 1.699974 33.914317 -0.000000 0.000001 -0.000000 -5.981491 1.104413 36.964499 -0.585431 1.985536 39.176155 0.000001 0.000003 0.000003 -26.074469 14.954412 7.739816 35.462947 24.131224 3.422551 -7.637606 20.527889 -10.759245 -2.951708 -2.232088 -2.573874 -0.000000 -0.000001 -0.000000 -30.018552 -37.138747 -25.199438 34.163838 -12.844540 -2.442291 -10.075933 -6.447475 12.292520 -4.804254 2.347563 2.814571 -0.000000 0.000001 -0.000000 
12.884342 96.454300 -1.247375 3.940931 -48.241257 3.468940 9.929446 -5.774586 2.143877 2.967047 -1.211545 -0.652809 0.000000 0.000000 0.000000 -9.020275 -4.366687 -1.601920 -8.544198 -4.716534 -4.541433 10.608242 -19.712418 5.755016 -0.000000 -0.000000 0.000000 -0.878240 -4.226515 -2.233010 0.000000 0.000000 0.000000 13.531523 6.780608 -62.153007 -0.020259 -42.480631 -0.009989 -13.978584 -1.700584 0.681744 10.610731 -8.609801 14.293133 -0.357701 14.631826 -7.082083 3.544714 12.122231 3.317800 -0.000002 -0.000002 0.000003 1.074731 -1.682907 -15.031766 -0.013510 -1.086879 -24.168011 0.000000 -0.000000 -0.000001 1.556044 -0.222476 -33.860314 -0.339069 -1.382953 -28.200485 -0.000002 0.000004 0.000003 -0.383735 -2.808704 -41.684259 -0.402808 -1.527367 -30.088739 -0.000001 0.000000 0.000002 0.287493 -1.146004 -35.957200 -0.410968 -1.749772 -33.816704 0.000000 0.000000 0.000000 -0.846760 0.820768 0.916899 0.000000 0.000000 0.000000 2.989853 9.871430 70.799521 0.512280 47.191071 -0.227973 14.622723 15.064749 2.863402 8.265282 7.734431 -18.880813 5.407332 -20.572678 9.835192 1.742516 -3.611574 0.678909 0.000001 0.000001 0.000001 0.423799 3.988746 18.092828 -0.070894 1.206686 27.024432 -0.000000 -0.000003 0.000000 -5.693474 0.419495 35.471338 -0.331014 1.367866 27.864923 -0.000000 0.000001 0.000000 -11.722672 -3.292681 42.202571 -0.507892 1.695979 33.824333 -0.000000 -0.000000 -0.000000 -5.917753 1.153303 36.846555 -0.580058 1.978845 39.019201 -0.000000 0.000001 0.000002 -25.502717 15.280909 7.961513 35.493450 25.112505 3.380852 -7.671837 20.910013 -11.337629 -2.615606 -1.916443 -2.884483 -0.000000 0.000001 0.000000 -30.217904 -36.878876 -25.458547 34.120149 -12.585895 -2.426923 -9.470827 -6.272150 12.089106 -5.415909 2.348717 2.459463 -0.000000 -0.000000 0.000000 
12.652327 96.450592 -1.551796 3.767088 -49.802563 3.510592 9.860603 -5.728604 2.092031 2.895064 -1.071964 -0.562724 0.000000 0.000000 0.000000 -9.100047 -4.316069 -1.464394 -8.530109 -4.413682 -4.597617 10.720726 -18.797792 5.274395 -0.000000 0.000000 -0.000000 -0.800621 -4.500679 -1.933182 0.000000 0.000000 0.000000 13.652197 6.640055 -62.119621 -0.019439 -42.599794 -0.009527 -13.882662 -2.727299 0.797314 10.581106 -8.637564 14.338674 -0.414999 14.605907 -7.028244 3.471653 11.765829 3.146819 -0.000005 -0.000001 0.000002 1.114351 -1.838926 -14.860065 -0.009417 -1.077751 -23.952768 0.000001 -0.000001 0.000000 1.447507 -0.296463 -33.824558 -0.338972 -1.382830 -28.197577 0.000000 -0.000003 0.000001 -0.428742 -2.746222 -41.695368 -0.407285 -1.535078 -30.256932 -0.000002 -0.000000 -0.000001 0.203714 -1.028221 -35.966226 -0.410849 -1.749609 -33.813070 0.000001 -0.000001 0.000001 -0.922055 1.266264 0.964827 0.000000 0.000000 0.000000 2.893474 8.881782 70.701569 0.416250 46.895830 -0.192425 14.871103 14.853416 2.950795 8.265281 7.734428 -18.880815 5.407332 -20.572678 9.835195 1.742517 -3.611575 0.678905 0.000001 0.000001 -0.000000 0.417020 3.978087 17.908616 -0.063689 1.192408 26.680706 0.000000 -0.000000 -0.000000 -5.592583 0.494504 35.169064 -0.326008 1.358336 27.654896 -0.000001 -0.000003 -0.000001 -11.569888 -3.123241 41.996101 -0.504106 1.690301 33.696212 -0.000001 0.000001 -0.000002 -5.821079 1.217432 36.684878 -0.572472 1.969463 38.798224 -0.000001 -0.000001 0.000000 -25.480313 15.526456 8.417733 35.995958 26.299239 3.373864 -7.515629 20.756947 -11.497552 -2.120281 -1.451126 -3.341925 0.000000 0.000000 -0.000000 -30.490859 -36.609595 -25.385629 34.441109 -11.882708 -2.391775 -9.810289 -5.667459 11.534220 -5.415908 2.348576 2.459458 -0.000000 -0.000001 0.000000 
12.412596 96.444893 -1.921333 3.610698 -51.195901 3.435455 9.800271 -5.608581 2.061583 2.839595 -0.944638 -0.432629 0.000000 0.000000 0.000000 -9.159905 -4.281928 -1.286581 -8.508167 -4.235820 -4.578833 10.792605 -17.958423 4.764735 -0.000000 -0.000000 0.000000 -0.726154 -4.749505 -1.633530 0.000000 0.000000 0.000000 13.608978 6.402165 -62.096644 -0.018524 -42.554059 -0.009076 -13.603453 -3.571042 1.026136 10.535364 -8.677442 14.409855 -0.467911 14.589202 -6.973095 3.362500 11.235073 2.892904 -0.000001 0.000000 -0.000003 1.151723 -2.065168 -14.597895 -0.003386 -1.063942 -23.629345 -0.000001 -0.000001 0.000000 1.286354 -0.405996 -33.745045 -0.338477 -1.381863 -28.176894 -0.000000 -0.000002 0.000000 -0.495283 -2.655279 -41.684098 -0.411499 -1.542240 -30.413309 0.000000 0.000000 0.000001 0.084672 -0.856780 -35.964528 -0.409949 -1.748222 -33.782491 -0.000001 0.000003 -0.000000 -0.995143 1.645273 1.031887 0.000000 0.000000 0.000000 2.815501 7.867685 70.540090 0.304945 46.539471 -0.150002 15.123883 14.466178 3.017641 8.265278 7.734431 -18.880815 5.407331 -20.572675 9.835193 1.742517 -3.611573 0.678905 -0.000002 -0.000001 -0.000001 0.408406 3.965418 17.675059 -0.054648 1.174355 26.246976 0.000000 0.000001 -0.000000 -5.466617 0.586056 34.785682 -0.319731 1.346277 27.387897 -0.000001 0.000000 0.000001 -11.377716 -2.913348 41.731059 -0.499265 1.683027 33.531441 0.000002 0.000002 -0.000003 -5.699273 1.294652 36.479228 -0.562724 1.957331 38.514204 0.000000 -0.000000 0.000000 -26.249375 15.524832 9.421396 37.390822 27.192656 3.343430 -6.241471 20.246301 -12.406173 -1.518842 -0.885956 -3.896991 -0.000000 -0.000001 -0.000000 -30.496965 -36.295202 -24.945577 34.689103 -11.387229 -2.370680 -10.131815 -5.223869 11.008903 -5.415906 2.348540 2.459473 0.000000 -0.000001 -0.000000 
